<svg width="162" height="47" viewBox="0 0 162 47" fill="none" xmlns="http://www.w3.org/2000/svg">
	<path
		d="M0 44.3235V34.1275H2.65532L6.13646 40.8441L6.36514 41.7235L6.59383 40.8441L10.0623 34.1275H12.7176V44.3235H10.8627V35.9755L10.075 38.0402L7.19096 43.4824H5.52662L2.57909 38.0529L1.76598 35.9755V44.3235H0Z"
		fill="black"/>
	<path
		d="M18.5147 44.5784C17.727 44.5784 17.0282 44.485 16.4184 44.298C15.8085 44.1026 15.2919 43.8265 14.8684 43.4696C14.4449 43.1127 14.123 42.6837 13.9028 42.1824C13.6826 41.681 13.5725 41.1203 13.5725 40.5C13.5725 39.8797 13.6826 39.319 13.9028 38.8176C14.123 38.3078 14.4449 37.8745 14.8684 37.5176C15.2919 37.1608 15.8085 36.8889 16.4184 36.702C17.0282 36.5065 17.727 36.4088 18.5147 36.4088C19.3024 36.4088 20.0011 36.5065 20.611 36.702C21.2293 36.8889 21.7502 37.1608 22.1737 37.5176C22.5972 37.8745 22.919 38.3078 23.1393 38.8176C23.3595 39.319 23.4696 39.8797 23.4696 40.5C23.4696 41.1203 23.3595 41.681 23.1393 42.1824C22.919 42.6837 22.5972 43.1127 22.1737 43.4696C21.7502 43.8265 21.2293 44.1026 20.611 44.298C20.0011 44.485 19.3024 44.5784 18.5147 44.5784ZM18.5147 42.9853C18.9212 42.9853 19.2939 42.9386 19.6327 42.8451C19.98 42.7516 20.2807 42.6072 20.5348 42.4118C20.7889 42.2078 20.9879 41.9487 21.1319 41.6343C21.2759 41.3199 21.3479 40.9418 21.3479 40.5C21.3479 40.0667 21.2759 39.6928 21.1319 39.3784C20.9879 39.0641 20.7889 38.8049 20.5348 38.601C20.2807 38.3971 19.98 38.2484 19.6327 38.1549C19.2939 38.0529 18.9212 38.002 18.5147 38.002C18.1166 38.002 17.7439 38.0529 17.3966 38.1549C17.0579 38.2484 16.7614 38.3971 16.5073 38.601C16.2532 38.8049 16.0542 39.0641 15.9102 39.3784C15.7662 39.6928 15.6942 40.0667 15.6942 40.5C15.6942 40.9418 15.7662 41.3199 15.9102 41.6343C16.0542 41.9487 16.2532 42.2078 16.5073 42.4118C16.7614 42.6072 17.0579 42.7516 17.3966 42.8451C17.7439 42.9386 18.1166 42.9853 18.5147 42.9853Z"
		fill="black"/>
	<path
		d="M24.1528 40.5C24.1528 39.8542 24.2502 39.2765 24.445 38.7667C24.6483 38.2569 24.932 37.8278 25.2962 37.4794C25.6604 37.131 26.0966 36.8676 26.6048 36.6892C27.1215 36.5023 27.6932 36.4088 28.32 36.4088C28.9806 36.4088 29.5862 36.5108 30.1368 36.7147C30.6873 36.9186 31.1362 37.2458 31.4835 37.6961V34H33.6052V44.3235H31.8773L31.6359 43.0873C31.2971 43.6141 30.8313 43.9964 30.2384 44.2343C29.6455 44.4637 29.006 44.5784 28.32 44.5784C27.7355 44.5784 27.1892 44.4892 26.681 44.3108C26.1813 44.1239 25.7409 43.8562 25.3597 43.5078C24.9871 43.1595 24.6906 42.7346 24.4704 42.2333C24.2586 41.7235 24.1528 41.1458 24.1528 40.5ZM28.8536 42.9853C29.15 42.9853 29.4507 42.9513 29.7556 42.8833C30.069 42.8154 30.3527 42.7092 30.6068 42.5647C30.8609 42.4203 31.0685 42.2333 31.2294 42.0039C31.3988 41.7745 31.4835 41.4984 31.4835 41.1755V39.8245C31.4835 39.5101 31.3988 39.2382 31.2294 39.0088C31.0685 38.7709 30.8609 38.5797 30.6068 38.4353C30.3527 38.2909 30.069 38.1846 29.7556 38.1167C29.4507 38.0402 29.15 38.002 28.8536 38.002C28.0743 38.002 27.4476 38.2186 26.9732 38.652C26.5074 39.0768 26.2745 39.6928 26.2745 40.5C26.2745 41.2987 26.5074 41.9147 26.9732 42.348C27.4476 42.7729 28.0743 42.9853 28.8536 42.9853Z"
		fill="black"/>
	<path
		d="M39.0915 36.4088C39.8115 36.4088 40.4594 36.4895 41.0354 36.651C41.6113 36.8124 42.0983 37.0588 42.4964 37.3902C42.8945 37.7131 43.1994 38.1167 43.4112 38.601C43.6229 39.0768 43.7288 39.6333 43.7288 40.2706V41.1245H36.5505C36.5675 41.7363 36.7877 42.1993 37.2112 42.5137C37.6432 42.8281 38.2699 42.9853 39.0915 42.9853C39.8538 42.9853 40.4425 42.8833 40.8575 42.6794C41.2725 42.4755 41.5012 42.2461 41.5436 41.9912H43.6653C43.4705 42.8239 42.9665 43.4654 42.1534 43.9157C41.3488 44.3575 40.3281 44.5784 39.0915 44.5784C38.3716 44.5784 37.7236 44.4935 37.1477 44.3235C36.5717 44.1536 36.0805 43.8987 35.6739 43.5588C35.2758 43.2105 34.9667 42.7856 34.7464 42.2843C34.5347 41.7745 34.4288 41.1797 34.4288 40.5C34.4288 39.8288 34.5347 39.2382 34.7464 38.7284C34.9667 38.2101 35.2758 37.781 35.6739 37.4412C36.0805 37.1013 36.5717 36.8464 37.1477 36.6765C37.7236 36.498 38.3716 36.4088 39.0915 36.4088ZM39.0915 38.002C38.2191 38.002 37.5796 38.1592 37.1731 38.4735C36.775 38.7794 36.5675 39.2 36.5505 39.7353V39.8373H41.6071V39.5824C41.6071 39.0895 41.3911 38.7029 40.9591 38.4225C40.5356 38.1422 39.9131 38.002 39.0915 38.002Z"
		fill="black"/>
	<path
		d="M44.9853 44.3235V36.6637H46.4336L46.7259 37.6833C46.8783 37.284 47.1155 36.9696 47.4373 36.7402C47.7592 36.5023 48.1276 36.3493 48.5427 36.2814C48.9662 36.2134 49.4193 36.2304 49.9021 36.3324C50.3849 36.4258 50.8719 36.6 51.3631 36.8549V38.7922C50.7025 38.4353 50.1096 38.2144 49.5845 38.1294C49.0678 38.0359 48.6274 38.0487 48.2631 38.1676C47.9074 38.2866 47.6279 38.5033 47.4246 38.8176C47.2298 39.1235 47.1239 39.4974 47.107 39.9392V44.3235H44.9853Z"
		fill="black"/>
	<path
		d="M52.0106 44.3235V36.6637H53.7257L53.9798 37.7471C54.2678 37.3392 54.6829 37.0163 55.2249 36.7784C55.7755 36.532 56.4785 36.4088 57.3339 36.4088C58.6722 36.4088 59.6547 36.6977 60.2815 37.2755C60.9082 37.8533 61.2216 38.7199 61.2216 39.8755V44.3235H59.0999V39.8755C59.0999 39.5781 59.0576 39.3147 58.9729 39.0853C58.8882 38.8474 58.7442 38.652 58.5409 38.499C58.3461 38.3376 58.0835 38.2144 57.7532 38.1294C57.4313 38.0444 57.029 38.002 56.5462 38.002C56.1397 38.002 55.7839 38.0444 55.479 38.1294C55.1826 38.2059 54.9327 38.3121 54.7294 38.448C54.5346 38.5755 54.3864 38.7284 54.2848 38.9069C54.1916 39.0768 54.1408 39.2552 54.1323 39.4422V44.3235H52.0106Z"
		fill="black"/>
	<path
		d="M79.9946 44.3235H77.8729L76.8819 42.1951H71.2917L70.3008 44.3235H68.179L72.9942 34.1275H75.1794L79.9946 44.3235ZM72.0286 40.602H76.1323L74.2901 36.6382L74.0741 35.7078L73.8708 36.6382L72.0286 40.602Z"
		fill="black"/>
	<path
		d="M80.817 44.3235V36.6637H82.2654L82.5576 37.6833C82.71 37.284 82.9472 36.9696 83.2691 36.7402C83.5909 36.5023 83.9594 36.3493 84.3744 36.2814C84.7979 36.2134 85.251 36.2304 85.7338 36.3324C86.2166 36.4258 86.7036 36.6 87.1949 36.8549V38.7922C86.5342 38.4353 85.9413 38.2144 85.4162 38.1294C84.8995 38.0359 84.4591 38.0487 84.0949 38.1676C83.7391 38.2866 83.4596 38.5033 83.2564 38.8176C83.0615 39.1235 82.9557 39.4974 82.9387 39.9392V44.3235H80.817Z"
		fill="black"/>
	<path
		d="M87.4993 36.6637H88.8841V34.3696H91.0058V36.6637H94.6521V38.2569H91.0058V41.7745C91.0058 42.0549 91.0651 42.2928 91.1837 42.4882C91.3023 42.6752 91.5013 42.8154 91.7808 42.9088C92.0688 42.9938 92.4542 43.0235 92.937 42.998C93.4198 42.9725 94.0296 42.8833 94.7665 42.7304V44.3235C92.7506 44.7484 91.2642 44.7611 90.3071 44.3618C89.3584 43.9624 88.8841 43.1 88.8841 41.7745V38.2569H87.4993V36.6637Z"
		fill="black"/>
	<path d="M106.319 44.3235V35.7206H101.542V34.1275H113.129V35.7206H108.44V44.3235H106.319Z" fill="black"/>
	<path
		d="M113.575 44.3235V34H115.696V37.5559C115.993 37.199 116.404 36.9186 116.929 36.7147C117.454 36.5108 118.11 36.4088 118.898 36.4088C120.236 36.4088 121.219 36.6977 121.846 37.2755C122.472 37.8533 122.786 38.7199 122.786 39.8755V44.3235H120.664V39.8755C120.664 39.5781 120.622 39.3147 120.537 39.0853C120.452 38.8474 120.308 38.652 120.105 38.499C119.91 38.3376 119.648 38.2144 119.317 38.1294C118.995 38.0444 118.593 38.002 118.11 38.002C117.704 38.002 117.348 38.0444 117.043 38.1294C116.747 38.2059 116.497 38.3121 116.294 38.448C116.099 38.5755 115.95 38.7284 115.849 38.9069C115.756 39.0768 115.705 39.2552 115.696 39.4422V44.3235H113.575Z"
		fill="black"/>
	<path
		d="M128.299 36.4088C129.019 36.4088 129.667 36.4895 130.242 36.651C130.818 36.8124 131.305 37.0588 131.704 37.3902C132.102 37.7131 132.407 38.1167 132.618 38.601C132.83 39.0768 132.936 39.6333 132.936 40.2706V41.1245H125.758C125.775 41.7363 125.995 42.1993 126.418 42.5137C126.85 42.8281 127.477 42.9853 128.299 42.9853C129.061 42.9853 129.65 42.8833 130.065 42.6794C130.48 42.4755 130.708 42.2461 130.751 41.9912H132.872C132.678 42.8239 132.174 43.4654 131.36 43.9157C130.556 44.3575 129.535 44.5784 128.299 44.5784C127.579 44.5784 126.931 44.4935 126.355 44.3235C125.779 44.1536 125.288 43.8987 124.881 43.5588C124.483 43.2105 124.174 42.7856 123.954 42.2843C123.742 41.7745 123.636 41.1797 123.636 40.5C123.636 39.8288 123.742 39.2382 123.954 38.7284C124.174 38.2101 124.483 37.781 124.881 37.4412C125.288 37.1013 125.779 36.8464 126.355 36.6765C126.931 36.498 127.579 36.4088 128.299 36.4088ZM128.299 38.002C127.426 38.002 126.787 38.1592 126.38 38.4735C125.982 38.7794 125.775 39.2 125.758 39.7353V39.8373H130.814V39.5824C130.814 39.0895 130.598 38.7029 130.166 38.4225C129.743 38.1422 129.12 38.002 128.299 38.002Z"
		fill="black"/>
	<path
		d="M138.69 44.5784C137.902 44.5784 137.203 44.485 136.594 44.298C135.984 44.1026 135.467 43.8265 135.044 43.4696C134.62 43.1127 134.298 42.6837 134.078 42.1824C133.858 41.681 133.748 41.1203 133.748 40.5C133.748 39.8797 133.858 39.319 134.078 38.8176C134.298 38.3078 134.62 37.8745 135.044 37.5176C135.467 37.1608 135.984 36.8889 136.594 36.702C137.203 36.5065 137.902 36.4088 138.69 36.4088C139.478 36.4088 140.176 36.5065 140.786 36.702C141.405 36.8889 141.925 37.1608 142.349 37.5176C142.772 37.8745 143.094 38.3078 143.314 38.8176C143.535 39.319 143.645 39.8797 143.645 40.5C143.645 41.1203 143.535 41.681 143.314 42.1824C143.094 42.6837 142.772 43.1127 142.349 43.4696C141.925 43.8265 141.405 44.1026 140.786 44.298C140.176 44.485 139.478 44.5784 138.69 44.5784ZM138.69 42.9853C139.096 42.9853 139.469 42.9386 139.808 42.8451C140.155 42.7516 140.456 42.6072 140.71 42.4118C140.964 42.2078 141.163 41.9487 141.307 41.6343C141.451 41.3199 141.523 40.9418 141.523 40.5C141.523 40.0667 141.451 39.6928 141.307 39.3784C141.163 39.0641 140.964 38.8049 140.71 38.601C140.456 38.3971 140.155 38.2484 139.808 38.1549C139.469 38.0529 139.096 38.002 138.69 38.002C138.292 38.002 137.919 38.0529 137.572 38.1549C137.233 38.2484 136.937 38.3971 136.683 38.601C136.428 38.8049 136.229 39.0641 136.085 39.3784C135.941 39.6928 135.869 40.0667 135.869 40.5C135.869 40.9418 135.941 41.3199 136.085 41.6343C136.229 41.9487 136.428 42.2078 136.683 42.4118C136.937 42.6072 137.233 42.7516 137.572 42.8451C137.919 42.9386 138.292 42.9853 138.69 42.9853Z"
		fill="black"/>
	<path
		d="M144.9 44.3235V36.6637H146.348L146.64 37.6833C146.793 37.284 147.03 36.9696 147.352 36.7402C147.674 36.5023 148.042 36.3493 148.457 36.2814C148.881 36.2134 149.334 36.2304 149.817 36.3324C150.299 36.4258 150.786 36.6 151.278 36.8549V38.7922C150.617 38.4353 150.024 38.2144 149.499 38.1294C148.982 38.0359 148.542 38.0487 148.178 38.1676C147.822 38.2866 147.542 38.5033 147.339 38.8176C147.144 39.1235 147.038 39.4974 147.021 39.9392V44.3235H144.9Z"
		fill="black"/>
	<path
		d="M156.384 47H154.314L155.94 43.9412L151.455 36.6637H153.691L156.791 41.7745L156.778 42.3608L159.802 36.6637H162L156.384 47Z"
		fill="black"/>
	<path fill-rule="evenodd" clip-rule="evenodd"
		  d="M0 12.9023V25.8045H3.03628H6.07255V15.9323V6.06015H8.93155H11.7905L16.7671 10.8811L21.7437 15.7018V20.7533V25.8045H24.8779H28.0121V19.5594V13.3143L24.3392 9.69272L20.6663 6.0711L25.9598 6.06562L31.2535 6.06015L32.8114 7.62406L34.3693 9.18797H39.0242H43.6789L43.73 17.4474L43.7811 25.7068L46.8664 25.7605L49.9516 25.8145V14.5688V3.32331H43.549H37.1464L35.4449 1.66165L33.7434 0H16.8717H0V12.9023ZM55.9102 0.179263C55.8651 0.22403 55.8283 6.00796 55.8283 13.0326V25.8045H58.9625H62.0967V20.1353V14.4662H70.0837H78.0709L79.6288 16.0301L81.1867 17.594H90.4698H99.753L99.7023 21.3571C99.6743 23.427 99.6639 25.2962 99.6792 25.5113C99.7058 25.8874 99.8257 25.9001 102.821 25.8442L105.934 25.7861L105.906 12.9908L105.878 0.195489L101.274 0.17418C86.71 0.106541 55.9797 0.11006 55.9102 0.179263ZM111.896 3.17669L111.95 6.15789L117.89 6.18839C121.157 6.2054 123.89 6.27988 123.963 6.35436C124.036 6.42884 126.277 8.60365 128.944 11.1874L133.792 15.885V20.9425V26H136.926H140.06L140.062 19.6955L140.063 13.391L136.389 9.82996L132.715 6.26913L147.357 6.31116L162 6.35338V3.27444V0.195489H136.921H111.842L111.896 3.17669ZM99.7074 8.8314V11.5913L91.8675 11.4893L84.0279 11.387L82.9654 10.4342C82.381 9.91011 81.5996 9.23938 81.2288 8.94361L80.5546 8.40602H71.3256H62.0967V7.23738V6.06875L80.9021 6.07012L99.7074 6.07129V8.8314Z"
		  fill="black"/>
</svg>
